<svg width="118" height="115" viewBox="0 0 118 115" fill="none" xmlns="http://www.w3.org/2000/svg">
<path d="M59 47.0078L36.5 8.03667" stroke="#20CCEC" stroke-width="16.0714" stroke-linecap="round"/>
<path d="M59 47.0078L81.5 8.03667" stroke="#FAB843" stroke-width="16.0714" stroke-linecap="round"/>
<path d="M11.901 105.007L1.63664 76.7192H6.86986L15.0531 99.2483L23.2565 76.7192H28.4695L18.2051 105.007H11.901ZM37.9532 105.532C36.0942 105.532 34.397 105.054 32.8614 104.098C31.3392 103.141 30.1202 101.855 29.2042 100.238C28.3017 98.6219 27.8504 96.8371 27.8504 94.8839C27.8504 93.4156 28.1131 92.0417 28.6384 90.762C29.1638 89.4688 29.8844 88.3373 30.8004 87.3675C31.7299 86.3841 32.8075 85.6163 34.0333 85.064C35.2591 84.5117 36.5657 84.2356 37.9532 84.2356C39.5292 84.2356 40.9705 84.5724 42.2771 85.2459C43.5972 85.9059 44.7153 86.8152 45.6312 87.9736C46.5472 89.1321 47.214 90.4522 47.6316 91.9339C48.0492 93.4156 48.1435 94.9647 47.9145 96.5812H33.1442C33.3328 97.3355 33.6427 98.0157 34.0737 98.6219C34.5048 99.2146 35.0503 99.6928 35.7103 100.056C36.3704 100.407 37.118 100.589 37.9532 100.602C38.8153 100.616 39.5965 100.413 40.297 99.9959C41.0109 99.5648 41.6036 98.9856 42.0751 98.2582L47.1062 99.4301C46.2845 101.222 45.0587 102.69 43.4288 103.835C41.7989 104.966 39.9737 105.532 37.9532 105.532ZM32.9826 92.8835H42.9237C42.7755 92.0753 42.459 91.3479 41.974 90.7014C41.5026 90.0413 40.9166 89.516 40.2162 89.1253C39.5157 88.7347 38.7614 88.5394 37.9532 88.5394C37.1449 88.5394 36.3973 88.7347 35.7103 89.1253C35.0234 89.5025 34.4374 90.0211 33.9525 90.6811C33.481 91.3277 33.1577 92.0619 32.9826 92.8835ZM69.7102 92.237V105.007H64.78V93.5301C64.78 92.7354 64.5847 92.0147 64.1941 91.3681C63.8034 90.7081 63.2781 90.1895 62.618 89.8123C61.9715 89.4217 61.2508 89.2264 60.4561 89.2264C59.6613 89.2264 58.9339 89.4217 58.2739 89.8123C57.6273 90.1895 57.1087 90.7081 56.718 91.3681C56.3409 92.0147 56.1523 92.7354 56.1523 93.5301V105.007H51.2222L51.2019 84.8014H56.1321L56.1523 86.5996C56.8393 85.8722 57.661 85.2998 58.6174 84.8822C59.5738 84.4511 60.6042 84.2356 61.7088 84.2356C63.1771 84.2356 64.5174 84.5993 65.7297 85.3267C66.942 86.0406 67.9051 87.0038 68.6191 88.2161C69.3465 89.4149 69.7102 90.7552 69.7102 92.237ZM73.7358 84.8014H78.6659V105.007H73.7358V84.8014ZM76.2413 82.1948C75.5139 82.1948 74.901 81.9591 74.4026 81.4877C73.9042 81.0027 73.655 80.3966 73.655 79.6692C73.655 78.9552 73.9042 78.3558 74.4026 77.8709C74.901 77.3859 75.5071 77.1435 76.2211 77.1435C76.935 77.1435 77.5344 77.3859 78.0194 77.8709C78.5178 78.3558 78.767 78.9552 78.767 79.6692C78.767 80.3966 78.5245 81.0027 78.0396 81.4877C77.5546 81.9591 76.9552 82.1948 76.2413 82.1948ZM83.3852 105.007L83.365 84.8014H88.2951L88.3153 86.5996C89.0023 85.8722 89.824 85.2998 90.7804 84.8822C91.7368 84.4511 92.7673 84.2356 93.8718 84.2356C94.6127 84.2356 95.3536 84.3434 96.0944 84.5589L94.1547 89.5294C93.6428 89.3274 93.131 89.2264 92.6191 89.2264C91.8243 89.2264 91.0969 89.4217 90.4369 89.8123C89.7903 90.1895 89.2717 90.7081 88.8811 91.3681C88.5039 92.0147 88.3153 92.7354 88.3153 93.5301V105.007H83.3852ZM106.305 105.532C104.446 105.532 102.748 105.054 101.213 104.098C99.6906 103.141 98.4715 101.855 97.5555 100.238C96.653 98.6219 96.2018 96.8371 96.2018 94.8839C96.2018 93.4156 96.4644 92.0417 96.9898 90.762C97.5151 89.4688 98.2358 88.3373 99.1518 87.3675C100.081 86.3841 101.159 85.6163 102.385 85.064C103.61 84.5117 104.917 84.2356 106.305 84.2356C107.881 84.2356 109.322 84.5724 110.628 85.2459C111.949 85.9059 113.067 86.8152 113.983 87.9736C114.899 89.1321 115.565 90.4522 115.983 91.9339C116.401 93.4156 116.495 94.9647 116.266 96.5812H101.496C101.684 97.3355 101.994 98.0157 102.425 98.6219C102.856 99.2146 103.402 99.6928 104.062 100.056C104.722 100.407 105.469 100.589 106.305 100.602C107.167 100.616 107.948 100.413 108.648 99.9959C109.362 99.5648 109.955 98.9856 110.426 98.2582L115.458 99.4301C114.636 101.222 113.41 102.69 111.78 103.835C110.15 104.966 108.325 105.532 106.305 105.532ZM101.334 92.8835H111.275C111.127 92.0753 110.81 91.3479 110.325 90.7014C109.854 90.0413 109.268 89.516 108.568 89.1253C107.867 88.7347 107.113 88.5394 106.305 88.5394C105.496 88.5394 104.749 88.7347 104.062 89.1253C103.375 89.5025 102.789 90.0211 102.304 90.6811C101.832 91.3277 101.509 92.0619 101.334 92.8835Z" fill="white"/>
</svg>
